<svg width="28" height="27" viewBox="0 0 28 27" fill="none" xmlns="http://www.w3.org/2000/svg">
<path d="M28 13.5496C28 6.06638 21.732 0 14 0C6.26802 0 0 6.06638 0 13.5496C0 19.9041 4.52004 25.236 10.6179 26.7002V17.6902H7.73102V13.5496H10.6179V11.7655C10.6179 7.1536 12.7744 5.01602 17.4526 5.01602C18.3396 5.01602 19.87 5.1843 20.4961 5.35264V9.1061C20.1656 9.07244 19.5917 9.05559 18.8787 9.05559C16.5831 9.05559 15.6961 9.89718 15.6961 12.0853V13.5496H20.269L19.4834 17.6902H15.6961V27C22.6281 26.1897 28 20.4772 28 13.5496Z" fill="#0866FF"/>
</svg>
