<?xml version="1.0" encoding="UTF-8"?>
<svg id="Layer_2" data-name="Layer 2" xmlns="http://www.w3.org/2000/svg" viewBox="0 0 984.82 204.09">
  <defs>
    <style>
      .cls-1 {
        fill: #024e32;
      }
    </style>
  </defs>
  <g id="Layer_1-2" data-name="Layer 1">
    <g>
      <g>
        <path class="cls-1" d="m516.01,14.89c-9.57,0-15.26,4.92-15.3,11.62-.08,7.44,7.42,10.53,14.35,12.27l7.92,2.09c12.7,3.18,24.78,10.22,24.82,25.67-.04,15.71-11.79,26.36-32.04,26.36s-32.16-9.96-32.78-27.67h15.05c.62,9.35,8.04,13.88,17.61,13.88s16.82-5.09,16.86-12.7c-.04-6.92-6.06-9.92-15.17-12.36l-9.61-2.61c-13.9-3.79-22.51-11.14-22.51-23.93-.04-15.75,13.28-26.28,31.01-26.28s30.14,10.66,30.43,25.71h-14.72c-.78-7.57-6.8-12.05-15.92-12.05Z"/>
        <path class="cls-1" d="m580.11,2.44l25.07,64.56h.99l25.07-64.56h18.72v89.1h-14.68V30.33h-.78l-23.34,60.95h-10.97l-23.34-61.08h-.78v61.34h-14.68V2.44h18.72Z"/>
        <path class="cls-1" d="m661.11,91.54l29.73-89.1h18.88l29.77,89.1h-16.33l-7.01-21.97h-31.75l-6.97,21.97h-16.33Zm50.92-34.94l-11.42-35.89h-.66l-11.42,35.89h23.5Z"/>
        <path class="cls-1" d="m750.61,2.44h31.67c19.38,0,29.77,11.49,29.77,28.5,0,12.09-5.24,21.06-15.17,25.28l18.27,35.33h-17.07l-16.58-32.63h-15.58v32.63h-15.3V2.44Zm29.4,43.07c11.34,0,16.45-5.09,16.45-14.58s-5.11-15.01-16.53-15.01h-14.02v29.59h14.1Z"/>
        <path class="cls-1" d="m822.41,2.44h67.38v13.53h-26.1v75.57h-15.17V15.97h-26.1V2.44Z"/>
        <path class="cls-1" d="m482.33,112.97h67.37v13.53h-26.1v75.57h-15.17v-75.57h-26.1v-13.53Z"/>
        <path class="cls-1" d="m666.7,145.6h.66l18.68-32.63h17.44l-26.02,44.55,26.43,44.55h-17.73l-18.8-32.41h-.66l-18.8,32.41h-17.65l26.68-44.55-26.35-44.55h17.53l18.6,32.63Z"/>
        <path class="cls-1" d="m784.85,202.08h-13.61l-39.79-60.69h-.7v60.69h-15.3v-89.1h13.69l39.75,60.74h.74v-60.74h15.22v89.1Z"/>
        <path class="cls-1" d="m816.74,202.08h-15.3v-89.1h15.3v89.1Z"/>
        <path class="cls-1" d="m833.35,112.97h15.3v40.94h1.03l32.95-40.94h18.68l-32.66,39.98,32.94,49.12h-18.39l-25.19-38.2-9.36,11.66v26.54h-15.3v-89.1Z"/>
        <path class="cls-1" d="m906.44,202.08l29.73-89.1h18.88l29.77,89.1h-16.33l-7.01-21.97h-31.75l-6.97,21.97h-16.33Zm50.92-34.94l-11.42-35.89h-.66l-11.42,35.89h23.5Z"/>
      </g>
      <path class="cls-1" d="m109.08,61.62l91.78-.03c30.64-.01,53.13,28.77,45.71,58.5l-9.61,38.48c-6.68,26.75-30.72,45.52-58.28,45.52H0l5.09-20.16h158.86c29.03,0,46.12-13.38,53.33-39.95,7.2-27.38,7.62-30.27,7.62-36.44,0-17.51-11.73-26.15-35.41-26.15h-89.67c-2.47,0-4.32-.62-4.32-3.3,0-.62.21-1.85,2.06-8.23,1.65-5.77,5.98-8.24,11.53-8.24Z"/>
      <path class="cls-1" d="m419.18,0l-19.81,78.5h-78.38l-31.7,125.59h-19.21l35.58-142.52h78.45l10.48-42.57h-203.03l-.05.2h-82.22c-28.83,0-46.75,13.39-53.75,40.16-7.62,30.26-8.03,31.92-8.03,37.06,0,16.27,12.15,24.51,36.44,24.51h89.66c3.09,0,4.33.21,4.33,2.47,0,1.03,0,1.65-2.27,9.88-1.65,5.97-6.38,8.23-11.94,8.23h-91.99c-32.88.09-49.9-23.99-43.66-48.7l12.22-48.41C46.89,18.29,70.38,0,97.31,0h321.87Z"/>
      <g>
        <rect class="cls-1" x="560.44" y="112.97" width="58.83" height="13.51"/>
        <rect class="cls-1" x="560.44" y="150.75" width="58.83" height="13.51"/>
        <rect class="cls-1" x="560.44" y="188.56" width="58.83" height="13.51"/>
      </g>
    </g>
  </g>
</svg>