<svg width="27" height="28" viewBox="0 0 27 28" fill="none" xmlns="http://www.w3.org/2000/svg">
<g clip-path="url(#clip0_55_134)">
<path d="M13.5 28C20.9558 28 27 21.732 27 14C27 6.26801 20.9558 0 13.5 0C6.04416 0 0 6.26801 0 14C0 21.732 6.04416 28 13.5 28Z" fill="url(#paint0_linear_55_134)"/>
<path fill-rule="evenodd" clip-rule="evenodd" d="M6.11089 13.8524C10.0464 12.0743 12.6707 10.902 13.9838 10.3356C17.7329 8.71851 18.5119 8.4376 19.0197 8.42832C19.1314 8.42628 19.3811 8.45498 19.5428 8.59109C19.6794 8.70602 19.717 8.86127 19.7349 8.97023C19.7529 9.07919 19.7753 9.32741 19.7575 9.52136C19.5543 11.7351 18.6753 17.1072 18.228 19.5866C18.0388 20.6358 17.6662 20.9876 17.3054 21.022C16.5215 21.0968 15.9261 20.4847 15.1668 19.9685C13.9787 19.1608 13.3074 18.658 12.1541 17.8698C10.8212 16.9589 11.6853 16.4583 12.4449 15.6401C12.6436 15.426 16.0978 12.1678 16.1647 11.8722C16.1731 11.8353 16.1808 11.6975 16.1019 11.6247C16.0229 11.552 15.9064 11.5768 15.8224 11.5966C15.7032 11.6247 13.8051 12.9257 10.128 15.4998C9.58921 15.8835 9.1012 16.0704 8.66396 16.0606C8.18194 16.0498 7.25473 15.778 6.56544 15.5456C5.72001 15.2606 5.04807 15.1099 5.10658 14.6259C5.13706 14.3738 5.47183 14.116 6.11089 13.8524Z" fill="white"/>
</g>
<defs>
<linearGradient id="paint0_linear_55_134" x1="1350" y1="0" x2="1350" y2="2779.23" gradientUnits="userSpaceOnUse">
<stop stop-color="#2AABEE"/>
<stop offset="1" stop-color="#229ED9"/>
</linearGradient>
<clipPath id="clip0_55_134">
<rect width="27" height="28" fill="white"/>
</clipPath>
</defs>
</svg>
